Coordinates
version=1
nRows=6
nColumns=46
inDegrees=yes

Units are S.I. units (second, meters, Newtons, ...)
Angles are in degrees.

endheader
time	pelvis_tilt	pelvis_list	pelvis_rotation	pelvis_tx	pelvis_ty	pelvis_tz	bb_angle	bb_tx	bb_ty	bb_tz	hip_flexion_r	hip_adduction_r	hip_rotation_r	knee_angle_r	knee_angle_r_beta	ankle_angle_r	subtalar_angle_r	mtp_angle_r	crank_angle_r	hip_flexion_l	hip_adduction_l	hip_rotation_l	knee_angle_l	knee_angle_l_beta	ankle_angle_l	subtalar_angle_l	mtp_angle_l	crank_angle_l	lumbar_extension	lumbar_bending	lumbar_rotation	arm_flex_r	arm_add_r	arm_rot_r	elbow_flex_r	pro_sup_r	wrist_flex_r	wrist_dev_r	arm_flex_l	arm_add_l	arm_rot_l	elbow_flex_l	pro_sup_l	wrist_flex_l	wrist_dev_l
      0.00500000	    -12.94904988	     -0.74163376	      2.30651420	      0.19515425	      1.04237387	     -0.23940760	      0.00000000	      0.50000000	      0.00000000	      0.25000000	     47.85673712	     -4.56084424	      1.66691189	     89.25033152	      1.55771214	     20.59283332	     -3.95901942	      0.00000000	      0.00000000	     70.40090428	     -6.74690169	     -0.87096702	     71.60330976	      1.24971351	     -0.42329829	     -3.09942398	      0.00000000	      0.00000000	    -57.72419312	      1.48755610	     -1.50438032	     88.79934758	    -12.88577236	     37.70571573	     38.09060075	     39.72723818	      0.00000000	      0.00000000	     86.16977994	    -18.24287746	     38.69677815	     46.85943014	     40.88007594	      0.00000000	      0.00000000
      0.01000000	    -12.94969980	     -0.74023032	      2.29200166	      0.19514849	      1.04235207	     -0.23939162	      0.00000000	      0.50000000	      0.00000000	      0.25000000	     47.86258267	     -4.55036540	      1.67973224	     89.26208451	      1.55791727	     20.60371193	     -3.96840461	      0.00000000	      0.00000000	     70.40787284	     -6.76620867	     -0.88551742	     71.61504249	      1.24991829	     -0.45202922	     -3.11239080	      0.00000000	      0.00000000	    -57.73040425	      1.47624758	     -1.50508707	     88.78992016	    -12.92673177	     37.72795746	     38.11172688	     40.06722576	      0.00000000	      0.00000000	     86.19217590	    -18.30911991	     38.70513324	     46.85921741	     41.23340909	      0.00000000	      0.00000000
      0.01500000	    -12.97754165	     -0.77415548	      2.29271420	      0.19518764	      1.04235493	     -0.23939153	      0.00000000	      0.50000000	      0.00000000	      0.25000000	     47.87206688	     -4.51653064	      1.65220043	     89.21822016	      1.55715169	     20.55555755	     -4.04780300	      0.00000000	      0.00000000	     70.44421774	     -6.78454731	     -0.86404671	     71.61277229	      1.24987866	     -0.43938220	     -3.11323678	      0.00000000	      0.00000000	    -57.70462422	      1.50242540	     -1.40341893	     88.79556063	    -13.19810544	     38.08430243	     38.26874424	     40.21714469	      0.00000000	      0.00000000	     86.33459553	    -18.50895325	     39.43723715	     46.84753955	     41.46159970	      0.00000000	      0.00000000
      0.02000000	    -12.82835290	     -0.77098060	      2.34676285	      0.19526166	      1.04254383	     -0.23935235	      0.00000000	      0.50000000	      0.00000000	      0.25000000	     47.73842398	     -4.58149262	      1.59874875	     89.28245699	      1.55827284	     20.57350377	     -3.86313136	      0.00000000	      0.00000000	     70.29801332	     -6.74295339	     -0.83255685	     71.65148096	      1.25055426	     -0.40798871	     -3.08744986	      0.00000000	      0.00000000	    -57.95816189	      1.54348294	     -1.35201609	     88.73757736	    -13.27548103	     37.61261309	     38.81722124	     40.50543075	      0.00000000	      0.00000000	     86.22986861	    -18.19074319	     38.59100526	     47.02607487	     41.62075763	      0.00000000	      0.00000000
      0.02500000	    -12.99578987	     -0.73101412	      2.32037417	      0.19508682	      1.04244089	     -0.23945465	      0.00000000	      0.50000000	      0.00000000	      0.25000000	     47.95228063	     -4.61755870	      1.68128868	     89.30559410	      1.55867666	     20.61212593	     -3.88370393	      0.00000000	      0.00000000	     70.47010313	     -6.70419084	     -0.81637956	     71.64358294	      1.25041641	     -0.41563291	     -3.10174608	      0.00000000	      0.00000000	    -57.68878550	      1.50690044	     -1.58450489	     88.78783662	    -12.92474883	     37.82774928	     38.00920451	     40.69063441	      0.00000000	      0.00000000	     86.09046134	    -18.28922110	     38.36505172	     46.87236320	     41.80477815	      0.00000000	      0.00000000
      0.03000000	    -13.07984590	     -0.74558130	      2.28619531	      0.19508748	      1.04224368	     -0.23932308	      0.00000000	      0.50000000	      0.00000000	      0.25000000	     48.06465143	     -4.57427057	      1.66753087	     89.32772752	      1.55906296	     20.48738898	     -4.03417189	      0.00000000	      0.00000000	     70.58188389	     -6.76391557	     -0.85529638	     71.66545773	      1.25079820	     -0.46513471	     -3.17365923	      0.00000000	      0.00000000	    -57.56075975	      1.48797603	     -1.47897597	     88.79041611	    -13.03389319	     38.04403414	     37.94569162	     40.99561685	      0.00000000	      0.00000000	     86.17580944	    -18.25047090	     38.67919582	     46.61729209	     42.07857278	      0.00000000	      0.00000000
